<svg xmlns="http://www.w3.org/2000/svg" width="60.402" height="59.115" viewBox="0 0 60.402 59.115"><defs><style>.a{fill:#fff;}</style></defs><g transform="translate(-1322.436 52.494)"><path class="a" d="M34.215,55.289a15.334,15.334,0,0,1,4.8-11.172A11.927,11.927,0,0,1,55.34,28.271V13.32a3.163,3.163,0,0,0-1.731-3.047l-2.023-.786h0L46.77,7.615l-5.5-2.151-4.949-1.9L31.345,1.63l-.134-.037-.128-.037a1.883,1.883,0,0,0-.872,0l-.128.037-.134.037L7.679,10.3a3.163,3.163,0,0,0-1.731,3.047V50.663H3.51a3.075,3.075,0,0,0,0,6.15H34.215ZM28.206,45.4l-17.394.451V41.521l17.394-1.359Zm0-10.465L10.811,37.205V32.89L28.206,29.7Zm0-10.465-17.394,4.09V24.23l17.394-5Zm0-10.471L10.811,19.909V15.642L28.206,8.889ZM60.837,55.289V59.1a1.554,1.554,0,0,1-1.548,1.524H40.1A1.554,1.554,0,0,1,38.567,59.1V55.319A11.056,11.056,0,0,1,45.4,45.08a7.594,7.594,0,1,1,8.588,0,11.056,11.056,0,0,1,6.851,10.209Z" transform="translate(1322 -54)"/></g></svg>