<svg xmlns="http://www.w3.org/2000/svg" width="53.57" height="52.429" viewBox="0 0 53.57 52.429"><defs><style>.a{fill:#1c1919;}</style></defs><g transform="translate(-1322.434 52.494)"><path class="a" d="M30.394,49.205A13.6,13.6,0,0,1,34.648,39.3,10.578,10.578,0,0,1,49.129,25.243V11.984a2.805,2.805,0,0,0-1.535-2.7l-1.795-.7h0l-4.27-1.659L36.654,5.016,32.265,3.335,27.848,1.616l-.119-.032-.114-.032a1.67,1.67,0,0,0-.773,0l-.114.032-.119.032L6.859,9.3a2.805,2.805,0,0,0-1.535,2.7V45.1H3.162a2.727,2.727,0,0,0,0,5.454H30.394Zm-5.33-8.773-15.427.4V36.994l15.427-1.205Zm0-9.281L9.638,33.167V29.34l15.427-2.832Zm0-9.281L9.638,25.5V21.659l15.427-4.438Zm0-9.286L9.638,17.827V14.043L25.065,8.054ZM54,49.205v3.378a1.378,1.378,0,0,1-1.373,1.351H35.616a1.378,1.378,0,0,1-1.362-1.351V49.232a9.805,9.805,0,0,1,6.059-9.081,6.735,6.735,0,1,1,7.616,0A9.805,9.805,0,0,1,54,49.205Z" transform="translate(1322 -54)"/></g></svg>