<svg xmlns="http://www.w3.org/2000/svg" width="77.973" height="78.362" viewBox="0 0 77.973 78.362"><defs><style>.a{fill:#fff;fill-rule:evenodd;}</style></defs><g transform="translate(8.486 10.181)"><g transform="translate(2)"><path class="a" d="M31.5,0a22.429,22.429,0,0,0-3.015.21A22.385,22.385,0,0,0,25.5,0,24.144,24.144,0,0,0,6.839,9.264a.946.946,0,0,0-.118.142,29.4,29.4,0,0,0-3.794,6.126.965.965,0,0,0-.067.15,31.138,31.138,0,0,0-1.76,4.9,1,1,0,0,0-.078.31A32.611,32.611,0,0,0,0,29,32.166,32.166,0,0,0,2.423,41.322a.889.889,0,0,0,.046.115,29.836,29.836,0,0,0,3.472,6.145,1,1,0,0,0,.107.14,27.3,27.3,0,0,0,4.74,4.943.964.964,0,0,0,.172.138A23.3,23.3,0,0,0,25.5,58a22.385,22.385,0,0,0,2.985-.21A22.43,22.43,0,0,0,31.5,58C45.56,58,57,44.991,57,29S45.56,0,31.5,0ZM48.717,20.2a1,1,0,0,1,1.27.622c.221.646.419,1.312.587,1.98a1,1,0,0,1-.726,1.214.984.984,0,0,1-.245.03,1,1,0,0,1-.969-.755c-.155-.615-.336-1.228-.539-1.821a1,1,0,0,1,.622-1.27ZM4.928,42H8.716c.157.354.318.705.487,1.051.073.149.149.3.225.443q.306.6.638,1.187c.082.145.162.292.246.435.177.3.362.592.548.884H7.274a27.644,27.644,0,0,1-2.346-4Zm-.46-25H8.3q-.264.656-.5,1.327c-.043.124-.087.247-.129.372-.144.429-.278.863-.405,1.3H3.356a29.138,29.138,0,0,1,1.112-3Zm3.557-6h3.5c-.122.175-.245.349-.364.527q-.442.664-.852,1.357c-.084.143-.164.29-.246.435q-.331.585-.638,1.187c-.076.148-.152.294-.225.443L9.178,15H5.429a27.214,27.214,0,0,1,2.6-4Zm16.257-.772a1,1,0,0,1-.909-1.782A18.364,18.364,0,0,1,25.289,7.6a1,1,0,1,1,.7,1.873,16.442,16.442,0,0,0-1.708.753Zm.476,38.907a1,1,0,0,1-.893.548.989.989,0,0,1-.451-.109,18.747,18.747,0,0,1-1.81-1.048,1,1,0,1,1,1.1-1.673,17.071,17.071,0,0,0,1.619.938,1,1,0,0,1,.439,1.344ZM13.144,33.94a1,1,0,0,1,1.212.729c.153.613.333,1.226.536,1.82a1,1,0,0,1-.624,1.269.988.988,0,0,1-.323.055A1,1,0,0,1,13,37.135c-.221-.648-.418-1.315-.584-1.983a1,1,0,0,1,.729-1.212Zm-1.478-4.918V29c0-.682.027-1.368.081-2.037a1,1,0,0,1,1.994.158c-.05.618-.074,1.25-.074,1.879a1.01,1.01,0,0,1-1,1.011.991.991,0,0,1-1-.989Zm3.212-7.471a1,1,0,0,1-1.894-.642c.221-.65.472-1.3.746-1.928a1,1,0,0,1,1.834.8c-.253.577-.483,1.173-.686,1.769ZM16.015,41.3a1,1,0,0,1,1.388.27c.353.524.733,1.034,1.128,1.515a1,1,0,0,1-1.547,1.269c-.434-.53-.851-1.09-1.239-1.665a1,1,0,0,1,.27-1.389ZM18.5,14.95a1,1,0,0,1-1.549-1.266c.441-.54.91-1.06,1.391-1.545a1,1,0,0,1,1.419,1.41c-.436.439-.86.91-1.261,1.4ZM2,29c0-.674.036-1.338.078-2H6.066c0,.016,0,.032,0,.048C6.026,27.694,6,28.343,6,29c0,.335.012.667.022,1H2.039C2.028,29.666,2,29.337,2,29Zm4.136,3c.039.421.087.839.141,1.255,0,.03.006.061.01.092.074.556.164,1.107.265,1.653H2.608a30.263,30.263,0,0,1-.447-3Zm.62-10c-.026.118-.048.237-.073.356s-.055.263-.08.4c-.122.627-.231,1.26-.316,1.9,0,.031-.006.062-.01.092-.011.085-.018.17-.029.255H2.279a30.2,30.2,0,0,1,.528-3Zm.239,15c.03.122.059.246.091.367.012.045.022.09.034.134.165.61.35,1.209.548,1.8.042.125.086.248.129.372s.075.219.114.327H4.058a29.312,29.312,0,0,1-.983-3ZM28.53,50.288a1.007,1.007,0,0,1,1.112-.874,15.72,15.72,0,0,0,1.858.11,1.038,1.038,0,0,1,1.043,1,.965.965,0,0,1-.957,1H31.5a17.84,17.84,0,0,1-2.1-.124,1,1,0,0,1-.874-1.112Zm4.905-41.7a.914.914,0,0,1-.116-.007A15.809,15.809,0,0,0,31.5,8.476a1.019,1.019,0,0,1-1.021-1,.982.982,0,0,1,.978-1H31.5a17.767,17.767,0,0,1,2.049.119,1,1,0,0,1-.114,1.993ZM20.94,2.614q-.5.258-.981.539c-.181.1-.363.206-.541.316-.277.17-.548.35-.819.531H16.675a21.045,21.045,0,0,1,4.578-1.558c-.106.053-.207.117-.313.172ZM13.232,6h2.762c-.248.217-.5.435-.737.662-.2.19-.4.387-.592.584s-.394.4-.587.606-.37.393-.55.6c-.159.18-.312.367-.467.552h-3.3a24.188,24.188,0,0,1,3.473-3ZM8.824,48h3.432c.112.148.225.3.34.441q.453.57.932,1.111c.18.2.365.4.55.6s.389.408.588.607c.08.081.155.166.236.245H11.9a24.833,24.833,0,0,1-3.071-3Zm12.429,7.558A21.335,21.335,0,0,1,14.784,53H17.2c.128.1.259.192.389.288.207.154.413.309.625.456q.591.413,1.2.787c.178.11.36.211.541.316q.484.281.981.539c.106.055.207.119.313.172Zm18.414-6.025a18.466,18.466,0,0,1-1.914.849,1,1,0,1,1-.7-1.871,16.546,16.546,0,0,0,1.706-.758,1,1,0,0,1,.913,1.78Zm1.983-38.7a1,1,0,0,1-1.384.292,17,17,0,0,0-1.621-.934,1,1,0,1,1,.9-1.785,18.906,18.906,0,0,1,1.812,1.043,1,1,0,0,1,.292,1.384Zm4.424,33.448c-.441.542-.909,1.063-1.389,1.548a1,1,0,1,1-1.42-1.408c.434-.439.857-.91,1.257-1.4a1,1,0,0,1,1.552,1.262ZM46.4,16.837a1,1,0,0,1-.829-.439c-.354-.523-.735-1.031-1.131-1.512a1,1,0,0,1,1.544-1.272c.436.529.854,1.088,1.243,1.663a1,1,0,0,1-.827,1.56ZM50.03,37.049c-.22.653-.47,1.3-.742,1.93a1,1,0,1,1-1.834-.8c.25-.574.479-1.17.681-1.769a1,1,0,1,1,1.9.638Zm1.227-6.056a1,1,0,0,1-1,.923q-.039,0-.078,0a1,1,0,0,1-.92-1.075c.047-.606.07-1.225.07-1.838a1.028,1.028,0,0,1,1-1.032.972.972,0,0,1,1,.967V29c0,.665-.025,1.335-.076,1.993Z" transform="matrix(0.875, -0.485, 0.485, 0.875, -10.486, 17.453)"/></g></g></svg>