<svg xmlns="http://www.w3.org/2000/svg" width="71.676" height="70.647" viewBox="0 0 71.676 70.647"><defs><style>.a{fill:#fff;}</style></defs><g transform="translate(949.353 -951.32)"><g transform="translate(-946.534 954.1)"><path class="a" d="M-898.652,984.8a8.484,8.484,0,0,0-5.9,2.431l-1.389,1.389-1.389-1.389a8.363,8.363,0,0,0-5.9-2.431,8.256,8.256,0,0,0-6.043,2.57A8.456,8.456,0,0,0-919,999.109l12.017,12.017a1.342,1.342,0,0,0,1.945,0l12.156-12.156a8.259,8.259,0,0,0,0-11.739A7.669,7.669,0,0,0-898.652,984.8Z" transform="translate(938.895 -963.475)"/><path class="a" d="M-899.492,968.35a1.512,1.512,0,0,0,1.508-1.508V955.608a1.512,1.512,0,0,0-1.508-1.508A1.512,1.512,0,0,0-901,955.608v11.234A1.512,1.512,0,0,0-899.492,968.35Z" transform="translate(932.511 -956.88)"/><path class="a" d="M-923.177,975.991a1.357,1.357,0,0,0,1.131.528,1.776,1.776,0,0,0,.98-.377,1.524,1.524,0,0,0,.151-2.111l-7.238-8.6a1.524,1.524,0,0,0-2.111-.151,1.524,1.524,0,0,0-.151,2.111Z" transform="translate(939.835 -959.545)"/><path class="a" d="M-933.992,997.292a1.458,1.458,0,0,0,1.433-1.206,1.471,1.471,0,0,0-1.206-1.734l-11.008-1.96a1.471,1.471,0,0,0-1.734,1.206,1.471,1.471,0,0,0,1.206,1.734l11.008,1.96Z" transform="translate(943.713 -966.295)"/><path class="a" d="M-930.616,1016.33l-9.726,5.579a1.462,1.462,0,0,0-.528,2.036,1.555,1.555,0,0,0,1.282.754,1.454,1.454,0,0,0,.754-.226l9.726-5.579a1.462,1.462,0,0,0,.528-2.036A1.462,1.462,0,0,0-930.616,1016.33Z" transform="translate(942.373 -972.138)"/><path class="a" d="M-911,1029.969a1.485,1.485,0,0,0-1.885.9l-3.845,10.556a1.485,1.485,0,0,0,.9,1.885,1.121,1.121,0,0,0,.528.075,1.448,1.448,0,0,0,1.357-.98l3.845-10.556A1.426,1.426,0,0,0-911,1029.969Z" transform="translate(936.404 -975.523)"/><path class="a" d="M-887.332,1030.884a1.552,1.552,0,0,0-1.885-.9,1.552,1.552,0,0,0-.9,1.885l3.845,10.556a1.449,1.449,0,0,0,1.357.98,1.471,1.471,0,0,0,.528-.075,1.552,1.552,0,0,0,.9-1.885Z" transform="translate(929.85 -975.533)"/><path class="a" d="M-861.9,1021.92l-9.726-5.579a1.569,1.569,0,0,0-2.036.528,1.569,1.569,0,0,0,.528,2.036l9.726,5.579a1.274,1.274,0,0,0,.754.226,1.555,1.555,0,0,0,1.282-.754A1.433,1.433,0,0,0-861.9,1021.92Z" transform="translate(925.829 -972.149)"/><path class="a" d="M-856.06,993.6a1.471,1.471,0,0,0-1.734-1.206l-11.008,1.96a1.471,1.471,0,0,0-1.206,1.734,1.522,1.522,0,0,0,1.433,1.206h.226l11.008-1.96A1.524,1.524,0,0,0-856.06,993.6Z" transform="translate(924.892 -966.295)"/><path class="a" d="M-879.284,976.519a1.357,1.357,0,0,0,1.131-.528l7.238-8.6a1.53,1.53,0,0,0-.151-2.111,1.53,1.53,0,0,0-2.111.151l-7.238,8.6a1.53,1.53,0,0,0,.151,2.111A1.249,1.249,0,0,0-879.284,976.519Z" transform="translate(927.533 -959.545)"/></g></g></svg>