<svg xmlns="http://www.w3.org/2000/svg" width="66.034" height="65.086" viewBox="0 0 66.034 65.086"><defs><style>.a{fill:#1c1919;}</style></defs><g transform="translate(946.534 -954.1)"><g transform="translate(-946.534 954.1)"><path class="a" d="M-898.652,984.8a8.484,8.484,0,0,0-5.9,2.431l-1.389,1.389-1.389-1.389a8.363,8.363,0,0,0-5.9-2.431,8.256,8.256,0,0,0-6.043,2.57A8.456,8.456,0,0,0-919,999.109l12.017,12.017a1.342,1.342,0,0,0,1.945,0l12.156-12.156a8.259,8.259,0,0,0,0-11.739A7.669,7.669,0,0,0-898.652,984.8Z" transform="translate(938.895 -963.475)"/><path class="a" d="M-899.611,967.228a1.393,1.393,0,0,0,1.389-1.389v-10.35a1.393,1.393,0,0,0-1.389-1.389A1.393,1.393,0,0,0-901,955.489v10.35A1.393,1.393,0,0,0-899.611,967.228Z" transform="translate(932.629 -954.1)"/><path class="a" d="M-923.775,975.121a1.25,1.25,0,0,0,1.042.486,1.636,1.636,0,0,0,.9-.347,1.4,1.4,0,0,0,.139-1.945l-6.668-7.919a1.4,1.4,0,0,0-1.945-.139,1.4,1.4,0,0,0-.139,1.945Z" transform="translate(941.72 -957.408)"/><path class="a" d="M-934.98,996.9a1.343,1.343,0,0,0,1.32-1.111,1.356,1.356,0,0,0-1.111-1.6l-10.142-1.806a1.356,1.356,0,0,0-1.6,1.111,1.356,1.356,0,0,0,1.111,1.6l10.141,1.806Z" transform="translate(946.534 -965.785)"/><path class="a" d="M-931.44,1016.313l-8.961,5.14a1.347,1.347,0,0,0-.486,1.875,1.433,1.433,0,0,0,1.181.695,1.34,1.34,0,0,0,.695-.208l8.961-5.14a1.347,1.347,0,0,0,.486-1.875A1.347,1.347,0,0,0-931.44,1016.313Z" transform="translate(944.87 -973.038)"/><path class="a" d="M-911.459,1029.962a1.368,1.368,0,0,0-1.737.833l-3.542,9.725a1.368,1.368,0,0,0,.833,1.737,1.032,1.032,0,0,0,.486.069,1.335,1.335,0,0,0,1.25-.9l3.543-9.725A1.314,1.314,0,0,0-911.459,1029.962Z" transform="translate(937.462 -977.24)"/><path class="a" d="M-887.556,1030.807a1.43,1.43,0,0,0-1.737-.833,1.43,1.43,0,0,0-.834,1.736l3.543,9.725a1.335,1.335,0,0,0,1.25.9,1.356,1.356,0,0,0,.486-.069,1.43,1.43,0,0,0,.834-1.737Z" transform="translate(929.327 -977.252)"/><path class="a" d="M-862.837,1021.467l-8.961-5.14a1.445,1.445,0,0,0-1.875.486,1.445,1.445,0,0,0,.486,1.876l8.961,5.14a1.174,1.174,0,0,0,.695.208,1.433,1.433,0,0,0,1.181-.695A1.32,1.32,0,0,0-862.837,1021.467Z" transform="translate(924.335 -973.051)"/><path class="a" d="M-857.16,993.5a1.355,1.355,0,0,0-1.6-1.111L-868.9,994.2a1.356,1.356,0,0,0-1.111,1.6,1.4,1.4,0,0,0,1.32,1.111h.208l10.142-1.806A1.4,1.4,0,0,0-857.16,993.5Z" transform="translate(923.173 -965.785)"/><path class="a" d="M-879.4,975.607a1.25,1.25,0,0,0,1.042-.486l6.668-7.919a1.409,1.409,0,0,0-.139-1.945,1.41,1.41,0,0,0-1.945.139l-6.668,7.919a1.409,1.409,0,0,0,.139,1.945A1.15,1.15,0,0,0-879.4,975.607Z" transform="translate(926.451 -957.408)"/></g></g></svg>