<svg xmlns="http://www.w3.org/2000/svg" width="66.209" height="45.732" viewBox="0 0 66.209 45.732"><defs><style>.a{fill:#fff;}</style></defs><g transform="translate(-7.888 -20.911)"><g transform="translate(7.888 20.911)"><circle class="a" cx="6.424" cy="6.424" r="6.424" transform="translate(48.488 7.263)"/><path class="a" d="M84.666,53.685a41.171,41.171,0,0,0-8.809-.948q-1.725,0-3.447.144A1.045,1.045,0,0,0,71.477,54a5.7,5.7,0,0,1,0,.666q-.388,5.209-.775,10.617a11.068,11.068,0,0,1-1.809,5.181,4.316,4.316,0,0,0,1.073.34,41.723,41.723,0,0,0,7.059.406c7.28-.465,9.73-8.184,10.118-14.231A3.528,3.528,0,0,0,84.666,53.685Z" transform="translate(-20.938 -27.719)"/><circle class="a" cx="6.424" cy="6.424" r="6.424" transform="translate(4.87 7.263)"/><path class="a" d="M7.893,57c.255,3.449.545,6.511,2.582,9.423,1.74,2.487,4.423,4.606,7.553,4.8a41.228,41.228,0,0,0,7.053-.41,4.338,4.338,0,0,0,1.063-.338,11.057,11.057,0,0,1-1.81-5.179q-.388-5.414-.774-10.608a5.758,5.758,0,0,1,0-.679,1.044,1.044,0,0,0-.933-1.123q-1.712-.143-3.435-.143a41.341,41.341,0,0,0-8.846.953A3.521,3.521,0,0,0,7.893,57Z" transform="translate(-7.888 -27.72)"/><circle class="a" cx="8.055" cy="8.055" r="8.055" transform="translate(25.048)"/><path class="a" d="M57.486,48.694a54.538,54.538,0,0,0-23.221.006,4.92,4.92,0,0,0-3.479,4.69q.386,5.177.773,10.6c.27,3.662,3.283,7.222,6.579,7.772a54.139,54.139,0,0,0,15.51,0c3.292-.557,6.3-4.113,6.568-7.772q.388-5.411.774-10.61A4.919,4.919,0,0,0,57.486,48.694Z" transform="translate(-12.785 -26.588)"/></g></g></svg>